<svg xmlns="http://www.w3.org/2000/svg" width="256" height="256" viewBox="0 0 256 256">
  <rect width="256" height="256" rx="38" fill="#19B3AE"/>
  <path fill="#161A23" d="M94 44c-9 2-15 7-19 14-3 6-4 13-4 20 0 10 2 19 6 28 6 13 15 23 28 30 10 6 21 8 32 8 11 0 21-3 31-8 10-6 18-14 23-24 5-9 6-19 4-29-3-12-10-22-21-29-10-7-22-10-34-9-10 1-19 4-28 10-4 3-7 6-10 10-2 2-5 2-7 0-2-2-2-5 0-7 3-4 7-8 12-12 10-7 22-12 34-13 14-2 27 1 39 8 13 8 23 20 27 35 3 12 2 25-4 37-6 12-15 22-27 29-4 2-9 4-13 6v28c0 3-2 5-5 5h-17c-3 0-5-2-5-5v-25c-12-1-23-5-33-11-14-8-25-20-33-34-7-13-10-26-10-40 1-9 2-16 6-24 6-12 15-20 28-23 3-1 6 1 7 4 1 3-1 6-4 7Z"/>
  <ellipse cx="146" cy="210" rx="45" ry="9" fill="#161A23"/>
</svg>

